<svg width="3000" height="3000" viewBox="0 0 3000 3000" fill="none" xmlns="http://www.w3.org/2000/svg">
<g clip-path="url(#clip0_502_27)">
<rect width="3000" height="3000" fill="#1C39BB"/>
<path d="M726 1420C656 1420 599.333 1400.83 556 1362.5C514.333 1322.5 493.5 1271.67 493.5 1210C493.5 1146.67 514.333 1095.83 556 1057.5C599.333 1019.17 656 1000 726 1000C796 1000 851.833 1019.17 893.5 1057.5C936.833 1095.83 958.5 1146.67 958.5 1210C958.5 1271.67 936.833 1322.5 893.5 1362.5C851.833 1400.83 796 1420 726 1420ZM726 2425C656 2425 599.333 2405.83 556 2367.5C514.333 2329.17 493.5 2278.33 493.5 2215C493.5 2151.67 514.333 2100.83 556 2062.5C599.333 2024.17 656 2005 726 2005C796 2005 851.833 2024.17 893.5 2062.5C936.833 2100.83 958.5 2151.67 958.5 2215C958.5 2278.33 936.833 2329.17 893.5 2367.5C851.833 2405.83 796 2425 726 2425ZM2107.52 2425C1957.52 2425 1840.86 2383.33 1757.52 2300C1674.19 2216.67 1632.52 2101.67 1632.52 1955V1722.5C1632.52 1610.83 1660.02 1519.17 1715.02 1447.5C1771.69 1375.83 1851.69 1331.67 1955.02 1315L1922.52 1382.5C1870.86 1310.83 1830.86 1240.83 1802.52 1172.5C1775.86 1104.17 1762.52 1036.67 1762.52 970C1762.52 886.667 1782.52 814.167 1822.52 752.5C1862.52 689.167 1918.36 640 1990.02 605C2061.69 568.333 2145.86 550 2242.52 550C2342.52 550 2429.19 569.167 2502.52 607.5C2577.52 645.833 2635.02 699.167 2675.02 767.5C2716.69 834.167 2737.52 913.333 2737.52 1005H2447.52C2447.52 965 2439.19 930 2422.52 900C2405.86 870 2381.69 847.5 2350.02 832.5C2320.02 815.833 2284.19 807.5 2242.52 807.5C2202.52 807.5 2167.52 815 2137.52 830C2107.52 845 2084.19 866.667 2067.52 895C2052.52 923.333 2045.02 956.667 2045.02 995C2045.02 1035 2055.02 1079.17 2075.02 1127.5C2096.69 1175.83 2125.86 1225 2162.52 1275L2507.52 1762.5L2645.02 1500H2947.52L2680.02 2007.5L2960.02 2400H2647.52L2530.02 2235C2413.36 2361.67 2272.52 2425 2107.52 2425ZM2132.52 2167.5C2180.86 2167.5 2225.86 2154.17 2267.52 2127.5C2309.19 2100.83 2345.02 2064.17 2375.02 2017.5L2032.52 1537.5C1997.52 1550.83 1971.69 1573.33 1955.02 1605C1938.36 1635 1930.02 1674.17 1930.02 1722.5V1955C1930.02 2021.67 1947.52 2074.17 1982.52 2112.5C2019.19 2149.17 2069.19 2167.5 2132.52 2167.5Z" fill="white"/>
</g>
<defs>
<clipPath id="clip0_502_27">
<rect width="3000" height="3000" fill="white"/>
</clipPath>
</defs>
</svg>
